<svg width="15" height="11" viewBox="0 0 15 11" fill="none" xmlns="http://www.w3.org/2000/svg">
<path d="M14.443 1.1307e-06H0.554862C0.481958 -0.000156242 0.409744 0.0161154 0.342363 0.0479312C0.274982 0.079747 0.213762 0.126457 0.162211 0.185379C0.11066 0.244302 0.0697941 0.314299 0.0419587 0.391315C0.0141232 0.46833 -0.000136697 0.55088 9.87603e-07 0.634209V10.3658C-0.000136697 10.4491 0.0141232 10.5316 0.0419587 10.6087C0.0697941 10.6857 0.11066 10.7556 0.162211 10.8146C0.213762 10.8735 0.274982 10.9202 0.342363 10.952C0.409744 10.9838 0.481958 11.0001 0.554862 11H14.443C14.516 11.0001 14.5884 10.9839 14.6559 10.9521C14.7234 10.9203 14.7847 10.8736 14.8364 10.8147C14.8882 10.7558 14.9292 10.6859 14.9573 10.6088C14.9853 10.5318 14.9999 10.4492 15 10.3658V0.634209C14.9999 0.550768 14.9853 0.468162 14.9573 0.391132C14.9292 0.314103 14.8882 0.244125 14.8364 0.185234C14.7847 0.126343 14.7234 0.0796814 14.6559 0.0478948C14.5884 0.0161081 14.516 -0.000155861 14.443 1.1307e-06ZM13.6688 2.88554L7.83908 6.73853H7.37931L1.55173 2.88674C1.48634 2.84329 1.42908 2.78556 1.38322 2.71682C1.33735 2.64808 1.30378 2.5697 1.28443 2.48613C1.26507 2.40256 1.2603 2.31543 1.2704 2.22975C1.28049 2.14408 1.30525 2.06152 1.34326 1.98678C1.38127 1.91205 1.43179 1.84661 1.49193 1.79419C1.55207 1.74177 1.62065 1.7034 1.69377 1.68127C1.76688 1.65915 1.84309 1.6537 1.91804 1.66523C1.993 1.67677 2.06523 1.70507 2.13062 1.74852L7.60815 5.36981L13.0857 1.74852C13.1511 1.70507 13.2233 1.67677 13.2983 1.66523C13.3732 1.6537 13.4494 1.65915 13.5225 1.68127C13.5956 1.7034 13.6642 1.74177 13.7244 1.79419C13.7845 1.84661 13.835 1.91205 13.873 1.98678C13.9111 2.06152 13.9358 2.14408 13.9459 2.22975C13.956 2.31543 13.9512 2.40256 13.9319 2.48613C13.9125 2.5697 13.8789 2.64808 13.8331 2.71682C13.7872 2.78556 13.73 2.84329 13.6646 2.88674L13.6688 2.88554Z" fill="#030303"/>
</svg>
